<?xml version="1.0" standalone="no"?>
<!DOCTYPE svg PUBLIC "-//W3C//DTD SVG 20010904//EN"
 "http://www.w3.org/TR/2001/REC-SVG-20010904/DTD/svg10.dtd">
<svg version="1.0" xmlns="http://www.w3.org/2000/svg"
 width="224.000000pt" height="224.000000pt" viewBox="0 0 224.000000 224.000000"
 preserveAspectRatio="xMidYMid meet">
<metadata>
Created by potrace 1.15, written by Peter Selinger 2001-2017
</metadata>
<g transform="translate(0.000000,224.000000) scale(0.100000,-0.100000)"
fill="#000000" stroke="none">
<path d="M530 1655 c-7 -8 -10 -26 -8 -40 4 -21 1 -25 -17 -25 -32 0 -49 -24
-41 -61 3 -16 2 -28 -3 -25 -4 3 -17 -2 -29 -10 -24 -17 -29 -53 -10 -72 9 -9
7 -12 -10 -12 -33 0 -50 -42 -30 -72 14 -21 14 -23 -6 -33 -33 -16 -29 -67 6
-79 19 -7 31 -6 42 4 22 17 20 66 -1 79 -16 9 -16 10 5 11 28 0 49 40 34 66
-8 14 -6 20 11 29 17 8 22 20 22 48 0 28 4 37 16 37 24 0 42 27 37 55 -4 20
-1 25 16 25 28 0 46 18 46 45 0 42 -54 62 -80 30z"/>
</g>
</svg>
